<svg width="81" height="109" viewBox="0 0 81 109" fill="none" xmlns="http://www.w3.org/2000/svg">
<path d="M48.29 32.4398L42.42 34.9198L37.1 35.1598C37.1 35.1598 37.49 26.7098 30.82 18.5898C30.82 18.5898 36.28 19.5798 42.08 25.6098C42.08 25.6098 46.96 29.8598 48.3 32.4298L48.29 32.4398Z" fill="#009540" stroke="#1D1D1B" stroke-miterlimit="10"/>
<path d="M55.38 30.62C55.38 30.62 65.44 13.89 68.75 13.8C68.75 13.8 53.43 17.7901 51.06 20.9501C51.06 20.9501 54.55 29.41 53.89 30.76L55.38 30.62Z" fill="#008D36" stroke="#1D1D1B" stroke-miterlimit="10"/>
<path d="M51.06 20.9499L47.7 14.8099C47.7 14.8099 52.13 14.8599 55.78 2.17993C55.78 2.17993 58.6 14.1999 56.09 17.7899C56.09 17.7899 51.03 20.4499 51.06 20.9499Z" fill="#008D36" stroke="#1D1D1B" stroke-miterlimit="10"/>
<path d="M48.29 32.44L42.42 34.92C42.42 34.92 52.32 35.6 58.51 40.74C58.51 40.74 59.94 33.66 70.65 30.46C70.65 30.46 60.57 29.99 53.89 30.75C51.13 31.06 49.89 31.88 48.29 32.43L42.07 25.61C43.64 23.09 39.83 4.53003 39.83 4.53003C39.83 4.53003 52.77 18.06 53.89 30.74" fill="#006633"/>
<path d="M48.29 32.44L42.42 34.92C42.42 34.92 52.32 35.6 58.51 40.74C58.51 40.74 59.94 33.66 70.65 30.46C70.65 30.46 60.57 29.99 53.89 30.75C51.13 31.06 49.89 31.88 48.29 32.43L42.07 25.61C43.64 23.09 39.83 4.53003 39.83 4.53003C39.83 4.53003 52.77 18.06 53.89 30.74" stroke="#1D1D1B" stroke-miterlimit="10"/>
<path d="M40.47 100.56C58.4524 100.56 73.03 85.9823 73.03 67.9999C73.03 50.0176 58.4524 35.4399 40.47 35.4399C22.4876 35.4399 7.90997 50.0176 7.90997 67.9999C7.90997 85.9823 22.4876 100.56 40.47 100.56Z" fill="#3C3C3B"/>
<path d="M71.3943 76.9386C76.4092 59.7444 66.5961 41.7579 49.4761 36.7647C32.3562 31.7714 14.4123 41.6622 9.39743 58.8564C4.38252 76.0506 14.1956 94.0371 31.3156 99.0303C48.4355 104.024 66.3794 94.1328 71.3943 76.9386Z" fill="#F8B133"/>
<path d="M30.98 36.88L65.57 87.7399C65.57 87.7399 67.81 85.7599 69.71 80.7699L66.47 81.65L35.03 35.95C35.03 35.95 32.02 36.0199 30.98 36.8899V36.88Z" fill="#F29100"/>
<path d="M44.74 35.78L46.24 37.76L15.62 51.11L14.21 49.26C14.21 49.26 11.07 53.5 10.74 57.2L54.12 38.51C54.12 38.51 47.48 35.62 44.74 35.77V35.78Z" fill="#F29100"/>
<path d="M23.63 39.8398C23.63 39.8398 20.44 41.7898 20.73 42.2698L56.79 95.8398C56.79 95.8398 59.84 94.2498 59.9 94.0198L23.63 39.8398Z" fill="#F29100"/>
<path d="M48.27 41.03L71.03 75.04C71.03 75.04 73.52 68.33 72.57 66.58L70.95 67.14L51.76 39.53L48.27 41.03Z" fill="#F29100"/>
<path d="M62.7 43.6699L11.31 65.8399L9.01002 62.5199C9.01002 62.5199 7.34002 70.6499 7.89002 70.9199L65.39 46.5999L62.7 43.6799V43.6699Z" fill="#F29100"/>
<path d="M69.57 53.3398L10.2 79.0998C10.2 79.0998 9.94999 81.3098 11.59 82.5498L70.73 56.9798C70.73 56.9798 71.21 55.3398 69.57 53.3398Z" fill="#F29100"/>
<path d="M66.84 68.78L16.85 90.58C16.85 90.58 18.12 92.61 19.99 93.3L69 72.02L66.83 68.78H66.84Z" fill="#F29100"/>
<path d="M62.6 83.3899L29 98.0599C29 98.0599 34.55 99.8299 34.87 99.7699L64.86 86.6999L62.6 83.3799V83.3899Z" fill="#F29100"/>
<path d="M14.07 55.77L43.73 100.22L48.1 99.81L17.67 54.21L14.07 55.77Z" fill="#F29100"/>
<path d="M9.89001 70.07L28.7 98.04L32.17 96.68L13.5 68.54L9.89001 70.07Z" fill="#F29100"/>
<path d="M40.47 78.76C46.4125 78.76 51.23 73.9426 51.23 68C51.23 62.0574 46.4125 57.24 40.47 57.24C34.5274 57.24 29.71 62.0574 29.71 68C29.71 73.9426 34.5274 78.76 40.47 78.76Z" fill="#1D1D1B"/>
<path d="M40.31 70.16C41.5913 70.16 42.63 69.1213 42.63 67.84C42.63 66.5587 41.5913 65.52 40.31 65.52C39.0287 65.52 37.99 66.5587 37.99 67.84C37.99 69.1213 39.0287 70.16 40.31 70.16Z" fill="url(#paint0_linear_455_377)"/>
<path opacity="0.93" d="M40.47 86.8299C50.8695 86.8299 59.3 78.3994 59.3 67.9999C59.3 57.6004 50.8695 49.1699 40.47 49.1699C30.0705 49.1699 21.64 57.6004 21.64 67.9999C21.64 78.3994 30.0705 86.8299 40.47 86.8299Z" stroke="#1D1D1B" stroke-width="0.5" stroke-miterlimit="10"/>
<path opacity="0.93" d="M40.47 82.6999C48.7046 82.6999 55.38 76.0244 55.38 67.7899C55.38 59.5553 48.7046 52.8799 40.47 52.8799C32.2354 52.8799 25.56 59.5553 25.56 67.7899C25.56 76.0244 32.2354 82.6999 40.47 82.6999Z" stroke="#1D1D1B" stroke-width="0.5" stroke-miterlimit="10"/>
<path opacity="0.93" d="M40.47 90.3799C52.8301 90.3799 62.85 80.36 62.85 67.9999C62.85 55.6397 52.8301 45.6199 40.47 45.6199C28.1098 45.6199 18.09 55.6397 18.09 67.9999C18.09 80.36 28.1098 90.3799 40.47 90.3799Z" stroke="#1D1D1B" stroke-width="0.5" stroke-miterlimit="10"/>
<path opacity="0.93" d="M40.47 93.99C54.8239 93.99 66.46 82.3539 66.46 68C66.46 53.6461 54.8239 42.01 40.47 42.01C26.1161 42.01 14.48 53.6461 14.48 68C14.48 82.3539 26.1161 93.99 40.47 93.99Z" stroke="#1D1D1B" stroke-width="0.5" stroke-miterlimit="10"/>
<path opacity="0.93" d="M40.47 96.8899C56.5415 96.8899 69.57 83.8614 69.57 67.7899C69.57 51.7185 56.5415 38.6899 40.47 38.6899C24.3985 38.6899 11.37 51.7185 11.37 67.7899C11.37 83.8614 24.3985 96.8899 40.47 96.8899Z" stroke="#1D1D1B" stroke-width="0.5" stroke-miterlimit="10"/>
<path d="M40.68 100.63C58.6514 100.63 73.22 85.9897 73.22 67.93C73.22 49.8703 58.6514 35.23 40.68 35.23C22.7087 35.23 8.14001 49.8703 8.14001 67.93C8.14001 85.9897 22.7087 100.63 40.68 100.63Z" stroke="#1D1D1B" stroke-miterlimit="10"/>
<defs>
<linearGradient id="paint0_linear_455_377" x1="39.2951" y1="65.7257" x2="41.248" y2="69.9348" gradientUnits="userSpaceOnUse">
<stop stop-color="#00A099"/>
<stop offset="0.12" stop-color="#17A18F"/>
<stop offset="0.38" stop-color="#52A576"/>
<stop offset="0.74" stop-color="#B1AC50"/>
<stop offset="1" stop-color="#F8B133"/>
</linearGradient>
</defs>
</svg>
