<svg width="27" height="27" viewBox="0 0 27 27" fill="none" xmlns="http://www.w3.org/2000/svg">
<circle cx="13.485" cy="13.485" r="13.485" fill="#292D32"/>
<path d="M5.86033 11.0432L12.7094 4.0431C12.792 3.95984 12.8902 3.89375 12.9985 3.84865C13.1067 3.80355 13.2228 3.78033 13.3401 3.78033C13.4574 3.78033 13.5735 3.80355 13.6817 3.84865C13.79 3.89375 13.8882 3.95984 13.9708 4.0431L20.8199 11.0521C20.9856 11.2191 21.1165 11.4174 21.2049 11.6355C21.2934 11.8536 21.3376 12.0871 21.3351 12.3224V19.7666C21.3358 20.2214 21.1621 20.6591 20.8497 20.9896C20.5374 21.3201 20.1102 21.5183 19.6562 21.5433H7.02405C6.56999 21.5183 6.1428 21.3201 5.83046 20.9896C5.51812 20.6591 5.34441 20.2214 5.3451 19.7666V12.3224C5.34439 11.8453 5.52914 11.3866 5.86033 11.0432ZM15.1168 19.7666V14.4366H11.5634V19.7666H15.1168ZM7.12177 19.7666H9.78677V13.5483C9.78677 13.3127 9.88036 13.0867 10.047 12.9201C10.2135 12.7535 10.4395 12.6599 10.6751 12.6599H16.0051C16.2407 12.6599 16.4667 12.7535 16.6332 12.9201C16.7998 13.0867 16.8934 13.3127 16.8934 13.5483V19.7666H19.5584V12.2868L13.3401 5.93525L7.12177 12.3224V19.7666Z" fill="#F9B233"/>
</svg>
