<svg width="320" height="568" viewBox="0 0 320 568" fill="none" xmlns="http://www.w3.org/2000/svg">
<g clip-path="url(#clip0_518_3884)">
<rect width="320" height="568" fill="white"/>
<g clip-path="url(#clip1_518_3884)">
<g filter="url(#filter0_df_518_3884)">
<path d="M193.615 15.9545C189.204 22.2856 180.959 25.1001 173.059 25.3238C144.083 26.1501 87.2499 36.5073 95.818 106.062C104.239 174.425 -15.9537 185.596 -79.7712 186.745C-99.0362 187.093 -113.164 169.355 -107.88 151.461C-91.512 96.0035 -61.2687 -6.30685 -60.5122 -7.76692C-59.4742 -9.77374 25.18 15.2959 32.452 -47.8784C39.724 -111.053 161.77 -62.4169 162.808 -57.403C163.846 -52.3891 383.531 -62.9202 379.901 -31.8301C376.265 -0.73996 355.493 64.4412 339.389 41.8816C323.29 19.3158 256.687 4.30504 253.174 3.27367C233.012 -2.64115 204.452 0.384605 193.609 15.9607L193.615 15.9545Z" fill="#FF9900"/>
</g>
<g filter="url(#filter1_f_518_3884)">
<path d="M99.5476 -0.211655H0.513672V141.757C0.513672 141.757 77.368 121.918 66.5363 86.6468C55.7046 51.3753 87.6837 39.03 104.702 40.3534C121.721 41.6768 119.663 5.08186 99.5417 -0.205445L99.5476 -0.211655Z" fill="#F9B233"/>
</g>
<g filter="url(#filter2_df_518_3884)">
<path d="M364.454 240.501C357.866 234.129 348.104 232.25 339.588 235.715C302.49 250.802 209.607 296.587 279.123 382.122C346.27 464.738 342.869 536.554 338.47 563.104C337.365 569.768 333.382 575.615 327.53 579.08C310.109 589.394 313.651 615.367 333.201 620.736C363.644 629.093 396.645 638 399.069 638C403.621 638 474.223 536.402 471.946 524.361C469.67 512.321 446.136 330.948 442.34 321.165C439.387 313.558 387.439 262.749 364.454 240.501Z" fill="#F9B233"/>
</g>
<g filter="url(#filter3_df_518_3884)">
<path d="M87.3837 248.031L-36.2568 266.079L-3.40685 405.67C-3.40685 405.67 87.9529 372.158 66.2683 339.451C44.5838 306.744 81.6521 288.778 103.206 286.978C124.759 285.177 113.722 249.57 87.3778 248.038L87.3837 248.031Z" fill="#F29100"/>
</g>
<g filter="url(#filter4_f_518_3884)">
<path d="M-25.9398 379.507C-25.0695 382.61 -21.9423 385.021 -17.974 385.649C-0.689098 388.387 44.5339 392.924 39.7976 354.89C35.2218 318.155 53.9206 298.042 61.9865 291.207C64.0113 289.492 66.8946 288.564 69.8846 288.682C78.7863 289.034 83.7969 280.847 77.9246 275.553C68.7791 267.311 58.8286 258.42 57.9389 257.957C56.2675 257.085 5.66245 272.949 3.57255 276.866C1.48265 280.783 -33.9486 337.725 -34.9322 341.281C-35.6965 344.045 -28.9716 368.676 -25.9398 379.507Z" fill="#F9B233"/>
</g>
<g filter="url(#filter5_f_518_3884)">
<path d="M347.2 -58.7016C351.856 -56.5892 447.196 -31.9296 395.869 1.17978C344.543 34.2891 287.359 15.271 289.352 6.11295C291.346 -3.0451 347.206 -58.6954 347.206 -58.6954L347.2 -58.7016Z" fill="#F9B233"/>
</g>
<g filter="url(#filter6_f_518_3884)">
<path d="M320.666 280.593C314.933 279.302 309.079 280.097 303.606 283.19C290.647 290.512 276.108 312.251 309.344 376.667C358.581 472.1 289.001 605 289.001 605L377 586.267L370.271 291.772L320.669 280.593H320.666Z" fill="#FF9900"/>
</g>
<g filter="url(#filter7_f_518_3884)">
<path d="M50.5007 497.712C50.4991 497.712 50.4976 497.711 50.496 497.711C41.8981 496.163 33.1175 497.117 24.9084 500.828C5.47112 509.615 -16.3373 535.701 33.5165 613C71.8866 672.497 62.1514 744.129 43.9387 799.228C32.3334 834.337 62.2704 876.906 98.7234 870.698C119.53 867.155 134.552 848.833 133.949 827.736L125.95 547.645C125.342 526.365 109.904 508.422 88.9526 504.644L50.5054 497.712C50.5038 497.712 50.5023 497.712 50.5007 497.712Z" fill="#FF9900"/>
</g>
<g filter="url(#filter8_f_518_3884)">
<path d="M-8.32494 463C-0.71077 469.208 155.188 541.673 71.2594 638.97C-12.6691 736.266 -106.178 680.379 -102.917 653.467C-99.6566 626.555 -8.3154 463.018 -8.3154 463.018L-8.32494 463Z" fill="#F9B233"/>
</g>
</g>
</g>
<defs>
<filter id="filter0_df_518_3884" x="-112.998" y="-81.9958" width="496.943" height="276.746" filterUnits="userSpaceOnUse" color-interpolation-filters="sRGB">
<feFlood flood-opacity="0" result="BackgroundImageFix"/>
<feColorMatrix in="SourceAlpha" type="matrix" values="0 0 0 0 0 0 0 0 0 0 0 0 0 0 0 0 0 0 127 0" result="hardAlpha"/>
<feOffset dy="4"/>
<feGaussianBlur stdDeviation="2"/>
<feComposite in2="hardAlpha" operator="out"/>
<feColorMatrix type="matrix" values="0 0 0 0 0 0 0 0 0 0 0 0 0 0 0 0 0 0 0.25 0"/>
<feBlend mode="normal" in2="BackgroundImageFix" result="effect1_dropShadow_518_3884"/>
<feBlend mode="normal" in="SourceGraphic" in2="effect1_dropShadow_518_3884" result="shape"/>
<feGaussianBlur stdDeviation="1" result="effect2_foregroundBlur_518_3884"/>
</filter>
<filter id="filter1_f_518_3884" x="-1.48633" y="-2.21165" width="119.667" height="145.968" filterUnits="userSpaceOnUse" color-interpolation-filters="sRGB">
<feFlood flood-opacity="0" result="BackgroundImageFix"/>
<feBlend mode="normal" in="SourceGraphic" in2="BackgroundImageFix" result="shape"/>
<feGaussianBlur stdDeviation="1" result="effect1_foregroundBlur_518_3884"/>
</filter>
<filter id="filter2_df_518_3884" x="250" y="232" width="226" height="414" filterUnits="userSpaceOnUse" color-interpolation-filters="sRGB">
<feFlood flood-opacity="0" result="BackgroundImageFix"/>
<feColorMatrix in="SourceAlpha" type="matrix" values="0 0 0 0 0 0 0 0 0 0 0 0 0 0 0 0 0 0 127 0" result="hardAlpha"/>
<feOffset dy="4"/>
<feGaussianBlur stdDeviation="2"/>
<feComposite in2="hardAlpha" operator="out"/>
<feColorMatrix type="matrix" values="0 0 0 0 0 0 0 0 0 0 0 0 0 0 0 0 0 0 0.25 0"/>
<feBlend mode="normal" in2="BackgroundImageFix" result="effect1_dropShadow_518_3884"/>
<feBlend mode="normal" in="SourceGraphic" in2="effect1_dropShadow_518_3884" result="shape"/>
<feGaussianBlur stdDeviation="1" result="effect2_foregroundBlur_518_3884"/>
</filter>
<filter id="filter3_df_518_3884" x="-40.2568" y="246.031" width="158.878" height="167.639" filterUnits="userSpaceOnUse" color-interpolation-filters="sRGB">
<feFlood flood-opacity="0" result="BackgroundImageFix"/>
<feColorMatrix in="SourceAlpha" type="matrix" values="0 0 0 0 0 0 0 0 0 0 0 0 0 0 0 0 0 0 127 0" result="hardAlpha"/>
<feOffset dy="4"/>
<feGaussianBlur stdDeviation="2"/>
<feComposite in2="hardAlpha" operator="out"/>
<feColorMatrix type="matrix" values="0 0 0 0 0 0 0 0 0 0 0 0 0 0 0 0 0 0 0.25 0"/>
<feBlend mode="normal" in2="BackgroundImageFix" result="effect1_dropShadow_518_3884"/>
<feBlend mode="normal" in="SourceGraphic" in2="effect1_dropShadow_518_3884" result="shape"/>
<feGaussianBlur stdDeviation="1" result="effect2_foregroundBlur_518_3884"/>
</filter>
<filter id="filter4_f_518_3884" x="-36.9922" y="255.922" width="119.452" height="133.481" filterUnits="userSpaceOnUse" color-interpolation-filters="sRGB">
<feFlood flood-opacity="0" result="BackgroundImageFix"/>
<feBlend mode="normal" in="SourceGraphic" in2="BackgroundImageFix" result="shape"/>
<feGaussianBlur stdDeviation="1" result="effect1_foregroundBlur_518_3884"/>
</filter>
<filter id="filter5_f_518_3884" x="287.302" y="-60.7016" width="125.698" height="82.6078" filterUnits="userSpaceOnUse" color-interpolation-filters="sRGB">
<feFlood flood-opacity="0" result="BackgroundImageFix"/>
<feBlend mode="normal" in="SourceGraphic" in2="BackgroundImageFix" result="shape"/>
<feGaussianBlur stdDeviation="1" result="effect1_foregroundBlur_518_3884"/>
</filter>
<filter id="filter6_f_518_3884" x="287" y="278" width="92" height="329" filterUnits="userSpaceOnUse" color-interpolation-filters="sRGB">
<feFlood flood-opacity="0" result="BackgroundImageFix"/>
<feBlend mode="normal" in="SourceGraphic" in2="BackgroundImageFix" result="shape"/>
<feGaussianBlur stdDeviation="1" result="effect1_foregroundBlur_518_3884"/>
</filter>
<filter id="filter7_f_518_3884" x="1" y="495" width="134.967" height="378.306" filterUnits="userSpaceOnUse" color-interpolation-filters="sRGB">
<feFlood flood-opacity="0" result="BackgroundImageFix"/>
<feBlend mode="normal" in="SourceGraphic" in2="BackgroundImageFix" result="shape"/>
<feGaussianBlur stdDeviation="1" result="effect1_foregroundBlur_518_3884"/>
</filter>
<filter id="filter8_f_518_3884" x="-105" y="461" width="203" height="235" filterUnits="userSpaceOnUse" color-interpolation-filters="sRGB">
<feFlood flood-opacity="0" result="BackgroundImageFix"/>
<feBlend mode="normal" in="SourceGraphic" in2="BackgroundImageFix" result="shape"/>
<feGaussianBlur stdDeviation="1" result="effect1_foregroundBlur_518_3884"/>
</filter>
<clipPath id="clip0_518_3884">
<rect width="320" height="568" fill="white"/>
</clipPath>
<clipPath id="clip1_518_3884">
<rect width="520" height="700" fill="white" transform="translate(-109 -80)"/>
</clipPath>
</defs>
</svg>
