<svg width="23" height="23" viewBox="0 0 23 23" fill="none" xmlns="http://www.w3.org/2000/svg">
<path d="M19.2034 16.1546C21.6486 13.9725 22.9999 11.5 22.9999 11.5C22.9999 11.5 18.6874 3.59375 11.4999 3.59375C10.1193 3.5985 8.75434 3.88617 7.48926 4.439L8.59613 5.54731C9.52682 5.20828 10.5094 5.03366 11.4999 5.03125C14.5474 5.03125 17.0759 6.71025 18.9289 8.56319C19.8206 9.45974 20.6201 10.4436 21.3151 11.5C21.2318 11.6251 21.1398 11.7631 21.0348 11.914C20.5533 12.604 19.8417 13.524 18.9289 14.4368C18.6917 14.674 18.4444 14.9083 18.1857 15.1354L19.2034 16.1546Z" fill="#333333"/>
<path d="M16.2393 13.1905C16.5601 12.2933 16.6195 11.3234 16.4106 10.3937C16.2018 9.46405 15.7332 8.61281 15.0594 7.93904C14.3856 7.26528 13.5344 6.79669 12.6047 6.58781C11.6751 6.37892 10.7052 6.43833 9.80796 6.75912L10.991 7.94218C11.5435 7.86311 12.1067 7.91378 12.6362 8.09019C13.1657 8.2666 13.6468 8.56389 14.0414 8.95851C14.436 9.35313 14.7333 9.83423 14.9097 10.3637C15.0861 10.8932 15.1368 11.4564 15.0577 12.0089L16.2393 13.1905ZM12.0088 15.0578L13.1904 16.2394C12.2932 16.5602 11.3233 16.6196 10.3936 16.4107C9.46396 16.2019 8.61272 15.7333 7.93895 15.0595C7.26519 14.3857 6.7966 13.5345 6.58772 12.6048C6.37883 11.6752 6.43824 10.7053 6.75902 9.80805L7.94209 10.9911C7.86301 11.5436 7.91369 12.1068 8.0901 12.6363C8.2665 13.1658 8.5638 13.6469 8.95842 14.0415C9.35303 14.4361 9.83414 14.7334 10.3636 14.9098C10.8931 15.0862 11.4563 15.1369 12.0088 15.0578Z" fill="#333333"/>
<path d="M4.81562 7.86312C4.55687 8.09312 4.30819 8.32599 4.071 8.56318C3.17924 9.45974 2.37981 10.4436 1.68475 11.5L1.96506 11.914C2.44662 12.604 3.15819 13.524 4.071 14.4368C5.92394 16.2897 8.45394 17.9687 11.5 17.9687C12.5293 17.9687 13.4981 17.7776 14.4038 17.4512L15.5106 18.561C14.2455 19.1138 12.8806 19.4014 11.5 19.4062C4.3125 19.4062 0 11.5 0 11.5C0 11.5 1.34981 9.02606 3.79644 6.84537L4.81419 7.86456L4.81562 7.86312ZM19.6161 20.6339L2.36613 3.38387L3.38388 2.36612L20.6339 19.6161L19.6161 20.6339Z" fill="#333333"/>
</svg>
