<?xml version="1.0" encoding="UTF-8"?>
<svg width="27" height="27" id="Calque_1" data-name="Calque 1" xmlns="http://www.w3.org/2000/svg" viewBox="0 0 26.97 26.97">
  <defs>
    <style>
      .cls-1 {
        fill: #f9b233;
      }

      .cls-2 {
        fill: #292d32;
      }
    </style>
  </defs>
  <circle class="cls-2" cx="13.48" cy="13.48" r="13.48"/>
  <g>
    <path class="cls-1" d="m19.51,8.78h-4.52c-.31,0-.56-.26-.56-.56s.26-.56.56-.56h4.52c.31,0,.56.26.56.56s-.26.56-.56.56Z"/>
    <path class="cls-1" d="m17.25,11.04h-2.26c-.31,0-.56-.26-.56-.56s.26-.56.56-.56h2.26c.31,0,.56.26.56.56s-.26.56-.56.56Z"/>
    <path class="cls-1" d="m13.11,20.82c-4.25,0-7.71-3.46-7.71-7.71s3.46-7.71,7.71-7.71c.31,0,.56.26.56.56s-.26.56-.56.56c-3.64,0-6.59,2.96-6.59,6.59s2.95,6.59,6.59,6.59,6.59-2.96,6.59-6.59c0-.31.26-.56.56-.56s.56.26.56.56c0,4.25-3.46,7.71-7.71,7.71Z"/>
    <path class="cls-1" d="m21.01,21.58c-.14,0-.29-.05-.4-.17l-1.51-1.51c-.22-.22-.22-.58,0-.8.22-.22.58-.22.8,0l1.51,1.51c.22.22.22.58,0,.8-.11.11-.26.17-.4.17Z"/>
  </g>
</svg>