<svg width="27" height="28" viewBox="0 0 27 28" fill="none" xmlns="http://www.w3.org/2000/svg">
<circle cx="12.5" cy="13.5" r="10.5" fill="#F9B233"/>
<path d="M13.4875 0C6.0424 0 0 6.08758 0 13.5884C0 21.0891 6.0424 27.1767 13.4875 27.1767C20.9326 27.1767 26.975 21.0891 26.975 13.5884C26.975 6.08758 20.9326 0 13.4875 0ZM13.9326 20.3825C13.6898 20.4641 13.2717 20.4641 13.0289 20.3825C10.9249 19.6623 6.20425 16.6321 6.20425 11.4957C6.20425 9.22649 8.01157 7.39206 10.2505 7.39206C11.5723 7.39206 12.7457 8.03071 13.4875 9.03625C14.2158 8.0443 15.4027 7.39206 16.7245 7.39206C18.9634 7.39206 20.7707 9.22649 20.7707 11.4957C20.7707 16.6321 16.0501 19.6623 13.9326 20.3825Z" fill="#292D32"/>
</svg>
