<svg width="21" height="11" viewBox="0 0 21 11" fill="none" xmlns="http://www.w3.org/2000/svg">
<path d="M10.5002 10.3332C10.1595 10.3339 9.82924 10.2152 9.56686 9.99779L0.816865 2.70612C0.519049 2.45859 0.331764 2.10288 0.29621 1.71726C0.260656 1.33164 0.379747 0.947689 0.627282 0.649873C0.874817 0.352057 1.23052 0.164772 1.61614 0.129218C2.00176 0.0936641 2.38572 0.212754 2.68353 0.460289L10.5002 6.99362L18.3169 0.693624C18.466 0.572486 18.6377 0.482023 18.8219 0.427435C19.0062 0.372847 19.1994 0.35521 19.3905 0.375538C19.5815 0.395866 19.7667 0.453757 19.9354 0.545886C20.104 0.638014 20.2528 0.762563 20.3731 0.912373C20.5067 1.06232 20.6078 1.23823 20.6702 1.42909C20.7326 1.61995 20.7549 1.82164 20.7358 2.02152C20.7166 2.22141 20.6564 2.41518 20.5588 2.5907C20.4613 2.76622 20.3286 2.9197 20.1689 3.04154L11.4189 10.0853C11.149 10.2683 10.8256 10.3556 10.5002 10.3332Z" fill="#333333"/>
</svg>
