<svg width="77" height="77" viewBox="0 0 77 77" fill="none" xmlns="http://www.w3.org/2000/svg">
<path d="M38.5 0C17.24 0 0 17.24 0 38.5C0 59.76 17.24 77 38.5 77C59.76 77 77 59.76 77 38.5C77 17.24 59.76 0 38.5 0ZM38.5 50.62C31.81 50.62 26.38 45.19 26.38 38.5C26.38 31.81 31.81 26.38 38.5 26.38C45.19 26.38 50.62 31.81 50.62 38.5C50.62 45.19 45.19 50.62 38.5 50.62Z" fill="#3C3C3B"/>
<path d="M70.8601 38.4999C70.9301 55.8699 56.4301 70.4099 38.5001 70.8599C20.6301 71.3099 6.14014 56.3699 6.14014 38.4999C6.14014 20.6299 20.6301 6.13989 38.5001 6.13989C56.3701 6.13989 70.7901 20.6299 70.8601 38.4999Z" stroke="#F9B233" stroke-miterlimit="10"/>
<path d="M38.4999 67.1199C54.3063 67.1199 67.1199 54.3063 67.1199 38.4999C67.1199 22.6935 54.3063 9.87988 38.4999 9.87988C22.6935 9.87988 9.87988 22.6935 9.87988 38.4999C9.87988 54.3063 22.6935 67.1199 38.4999 67.1199Z" stroke="#F9B233" stroke-miterlimit="10"/>
<path d="M38.5002 56.28C48.3198 56.28 56.2802 48.3196 56.2802 38.5C56.2802 28.6803 48.3198 20.72 38.5002 20.72C28.6806 20.72 20.7202 28.6803 20.7202 38.5C20.7202 48.3196 28.6806 56.28 38.5002 56.28Z" stroke="#F9B233" stroke-miterlimit="10"/>
<path d="M38.5001 59.9401C50.341 59.9401 59.9401 50.341 59.9401 38.5001C59.9401 26.6591 50.341 17.0601 38.5001 17.0601C26.6591 17.0601 17.0601 26.6591 17.0601 38.5001C17.0601 50.341 26.6591 59.9401 38.5001 59.9401Z" stroke="#F9B233" stroke-miterlimit="10"/>
<path d="M38.5002 63.51C52.3129 63.51 63.5102 52.3126 63.5102 38.5C63.5102 24.6873 52.3129 13.49 38.5002 13.49C24.6876 13.49 13.4902 24.6873 13.4902 38.5C13.4902 52.3126 24.6876 63.51 38.5002 63.51Z" stroke="#F9B233" stroke-miterlimit="10"/>
</svg>
