<svg width="26" height="24" viewBox="0 0 26 24" fill="none" xmlns="http://www.w3.org/2000/svg">
<path d="M25.9998 19.5988C25.9998 19.5721 25.9865 19.5454 25.9865 19.5188C25.9732 19.4121 25.9598 19.3054 25.9198 19.2121C25.8665 19.0921 25.7998 18.9988 25.7199 18.9054C25.7199 18.9054 25.7199 18.8921 25.7065 18.8921C25.6132 18.7988 25.5065 18.7321 25.3865 18.6788C25.2665 18.6255 25.1332 18.5988 24.9999 18.5988L18.7734 18.6255C18.7734 18.6255 18.7734 18.6255 18.7601 18.6255C17.9601 18.6255 17.1868 18.2521 16.7068 17.6122L15.0802 15.5189C14.7469 15.0789 14.1203 14.9989 13.6803 15.3456C13.2403 15.6922 13.1603 16.3055 13.507 16.7455L15.1336 18.8388C16.0002 19.9587 17.3601 20.6254 18.7734 20.6254H18.7868L22.5866 20.6121L21.64 21.5587C21.2533 21.9453 21.2533 22.5853 21.64 22.972C21.84 23.172 22.0933 23.2653 22.3466 23.2653C22.6 23.2653 22.8533 23.172 23.0533 22.972L25.7199 20.3054C25.8132 20.2121 25.8798 20.1054 25.9332 19.9854C25.9732 19.8521 25.9998 19.7188 25.9998 19.5988Z" fill="#333333"/>
<path d="M8.22637 4.54698C7.35974 3.34702 5.97312 2.64038 4.49317 2.64038C4.47984 2.64038 4.47984 2.64038 4.46651 2.64038L0.999964 2.65371C0.453317 2.65371 0 3.10703 0 3.65368C0 4.20032 0.453317 4.65364 0.999964 4.65364L4.47984 4.64031H4.49317C5.33314 4.64031 6.11978 5.04029 6.59976 5.72027L8.03971 7.7202C8.2397 7.98686 8.54636 8.13352 8.85301 8.13352C9.05301 8.13352 9.26633 8.06685 9.43966 7.94686C9.89298 7.61354 9.98631 6.98689 9.66632 6.54691L8.22637 4.54698Z" fill="#333333"/>
<path d="M25.9857 3.72987C25.9857 3.7032 25.9991 3.67654 25.9991 3.6632C25.9991 3.52987 25.9724 3.39654 25.9191 3.27655C25.8657 3.15655 25.7991 3.04989 25.7057 2.95656L23.0392 0.28999C22.6525 -0.0966632 22.0125 -0.0966632 21.6259 0.28999C21.2392 0.676642 21.2392 1.31662 21.6259 1.70327L22.5725 2.64991L18.9327 2.63657C18.9193 2.63657 18.9193 2.63657 18.906 2.63657C17.3727 2.63657 15.9328 3.39654 15.0795 4.68983L10.8196 11.0762L6.55976 17.4626C6.07978 18.1826 5.26648 18.6226 4.39984 18.6226H4.38651L0.999964 18.5959C0.453317 18.5959 0 19.0359 0 19.5959C0 20.1425 0.439984 20.5959 0.999964 20.5959L4.39984 20.6092H4.42651C5.97312 20.6092 7.39973 19.8494 8.25304 18.5561L16.7727 5.78313C17.2527 5.06315 18.066 4.62317 18.9327 4.62317H18.946L24.9991 4.64983C25.1324 4.64983 25.2524 4.62317 25.3858 4.56984C25.5058 4.5165 25.6124 4.44984 25.7057 4.35651C25.7057 4.35651 25.7057 4.34318 25.7191 4.34318C25.7991 4.24985 25.8791 4.15652 25.9191 4.03652C25.9591 3.94319 25.9724 3.83653 25.9857 3.72987Z" fill="#333333"/>
</svg>
